<svg xmlns="http://www.w3.org/2000/svg" version="1.1" xmlns:xlink="http://www.w3.org/1999/xlink" xmlns:svgjs="http://svgjs.dev/svgjs" width="1440" height="560" preserveAspectRatio="none" viewBox="0 0 1440 560"><g mask="url(&quot;#SvgjsMask1051&quot;)" fill="none"><rect width="1440" height="560" x="0" y="0" fill="#0e2a47"></rect><path d="M0,363.456C87.049,365.628,177.127,436.144,253.963,395.174C330.248,354.498,349.873,252.384,367.165,167.679C382.027,94.876,345.068,24.736,344.755,-49.568C344.371,-140.608,424.822,-247.646,365.125,-316.383C305.404,-385.148,186.929,-314.106,97.985,-333.708C18.142,-351.305,-44.062,-438.454,-124.589,-424.311C-205.326,-410.131,-260.91,-333.077,-303.704,-263.161C-342.437,-199.881,-341.138,-123.988,-353.219,-50.785C-365.592,24.189,-393.684,97.69,-375.431,171.453C-355.181,253.284,-321.001,344.319,-245.948,382.703C-171.22,420.92,-83.907,361.363,0,363.456" fill="#0a1d30"></path><path d="M1440 1139.489C1567.152 1156.135 1710.135 1217.5 1816.855 1146.3980000000001 1923.694 1075.217 1909.551 915.3340000000001 1956.05 795.672 1999.254 684.49 2100.718 585.465 2080.505 467.909 2060.334 350.599 1949.522 272.225 1853.867 201.38299999999998 1772.649 141.233 1672.892 125.47399999999999 1576.616 94.72899999999998 1477.662 63.12900000000002 1382.647-2.8920000000000528 1280.983 18.436000000000035 1177.3029999999999 40.18700000000001 1116.412 141.51 1034.34 208.49400000000003 932.515 291.6 756.119 328.927 740.635 459.446 725.037 590.931 895.694 664.449 967.0160000000001 776.005 1025.534 867.5350000000001 1035.496 989.1859999999999 1121.636 1055.384 1210.466 1123.649 1328.917 1124.9470000000001 1440 1139.489" fill="#13375e"></path></g><defs><mask id="SvgjsMask1051"><rect width="1440" height="560" fill="#ffffff"></rect></mask></defs></svg>